# xmcd
# 
# Track frame offsets:
#     150
#     21357
#     57447
#     80979
#     102421
#     115959
#     143810
#     153758
# 
# Disc length: 2173
# 
# Revision: 2
# Processed by: cddbd v1.5.2PL0 Copyright (c) Steve Scherf et al.
# Submitted via: fre:ac v1.0.17
# 
DISCID=6b087b08
DTITLE=Eden (Canada) - Eden
DYEAR=1978
DGENRE=Progressive Rock
TTITLE0=Allias
TTITLE1=Pavane
TTITLE2=La Ballerine Musclee
TTITLE3=Transe
TTITLE4=Arabesque
TTITLE5=Louis Le Cancre
TTITLE6=Intuition
TTITLE7=La Foret
EXTD=
EXTT0=
EXTT1=
EXTT2=
EXTT3=
EXTT4=
EXTT5=
EXTT6=
EXTT7=
PLAYORDER=
